<mxfile host="app.diagrams.net" agent="Mozilla/5.0 (Macintosh; Intel Mac OS X 10_15_7) AppleWebKit/537.36 (KHTML, like Gecko) Chrome/138.0.0.0 Safari/537.36" version="28.0.6">
  <diagram name="Page-1" id="-fVjL9lVlHPRfzOQ9n8C">
    <mxGraphModel dx="976" dy="664" grid="1" gridSize="10" guides="1" tooltips="1" connect="1" arrows="1" fold="1" page="1" pageScale="1" pageWidth="827" pageHeight="1169" math="0" shadow="0">
      <root>
        <mxCell id="0" />
        <mxCell id="1" parent="0" />
        <mxCell id="vwBMsjArOhhtgs1t8mWz-1" value="" style="verticalLabelPosition=bottom;verticalAlign=top;html=1;shape=mxgraph.basic.diag_snip_rect;dx=6;whiteSpace=wrap;shadow=1;" vertex="1" parent="1">
          <mxGeometry x="100" y="139.03" width="430" height="218.96360730593605" as="geometry" />
        </mxCell>
        <mxCell id="vwBMsjArOhhtgs1t8mWz-2" value="" style="shape=partialRectangle;whiteSpace=wrap;html=1;bottom=0;right=0;fillColor=none;" vertex="1" parent="1">
          <mxGeometry x="100" y="114.28571428571429" width="100" height="37.75714285714286" as="geometry" />
        </mxCell>
        <mxCell id="vwBMsjArOhhtgs1t8mWz-3" value="&lt;p style=&quot;&quot;&gt;&lt;br&gt;&lt;/p&gt;&lt;div style=&quot;&quot;&gt;&lt;span style=&quot;background-color: transparent;&quot;&gt;&lt;font face=&quot;Times New Roman&quot; style=&quot;font-size: 11px; color: light-dark(rgb(0, 0, 0), rgb(255, 255, 255));&quot;&gt;You are generating a single restaurant review sentence.&lt;/font&gt;&lt;/span&gt;&lt;/div&gt;&lt;div style=&quot;&quot;&gt;&lt;span style=&quot;background-color: transparent;&quot;&gt;&lt;font face=&quot;Times New Roman&quot; style=&quot;font-size: 11px; color: light-dark(rgb(0, 0, 0), rgb(255, 255, 255));&quot;&gt;The sentence must mention the given aspect and reflect the given sentiment.&amp;nbsp;&lt;/font&gt;&lt;/span&gt;&lt;/div&gt;&lt;div style=&quot;&quot;&gt;&lt;font face=&quot;Times New Roman&quot;&gt;&lt;span style=&quot;font-size: 11px;&quot;&gt;Use natural human-like language, realistic and rich vocabulary.&lt;/span&gt;&lt;/font&gt;&lt;/div&gt;&lt;div style=&quot;&quot;&gt;&lt;font face=&quot;Times New Roman&quot;&gt;&lt;span style=&quot;font-size: 11px;&quot;&gt;Output: one sentence of maximum 20 words. Stop after generating 1 sentence.&amp;nbsp;&lt;/span&gt;&lt;/font&gt;&lt;/div&gt;&lt;div style=&quot;&quot;&gt;&lt;br&gt;&lt;/div&gt;&lt;div style=&quot;&quot;&gt;&lt;font face=&quot;Times New Roman&quot;&gt;&lt;span style=&quot;font-size: 11px;&quot;&gt;Aspect: calamari rings&lt;/span&gt;&lt;/font&gt;&lt;/div&gt;&lt;div style=&quot;&quot;&gt;&lt;font face=&quot;Times New Roman&quot;&gt;&lt;span style=&quot;font-size: 11px;&quot;&gt;Sentiment: positive&lt;/span&gt;&lt;/font&gt;&lt;/div&gt;&lt;div style=&quot;&quot;&gt;&lt;font face=&quot;Times New Roman&quot;&gt;&lt;span style=&quot;font-size: 11px;&quot;&gt;Output: &lt;/span&gt;&lt;font style=&quot;font-size: 11px;&quot;&gt;I&#39;ve had the calamari rings at a number of restaurants, and this place does it the best.&lt;/font&gt;&lt;/font&gt;&lt;/div&gt;&lt;div style=&quot;&quot;&gt;&lt;span style=&quot;background-color: transparent;&quot;&gt;&lt;font face=&quot;Times New Roman&quot; style=&quot;font-size: 11px; color: light-dark(rgb(0, 0, 0), rgb(255, 255, 255));&quot;&gt;&lt;br&gt;&lt;/font&gt;&lt;/span&gt;&lt;/div&gt;&lt;div style=&quot;&quot;&gt;&lt;div&gt;&lt;font face=&quot;Times New Roman&quot;&gt;&lt;span style=&quot;font-size: 11px;&quot;&gt;Aspect: &lt;i&gt;meat&lt;/i&gt;&lt;/span&gt;&lt;/font&gt;&lt;/div&gt;&lt;div&gt;&lt;font face=&quot;Times New Roman&quot;&gt;&lt;span style=&quot;font-size: 11px;&quot;&gt;Sentiment: &lt;i&gt;positive&lt;/i&gt;&lt;/span&gt;&lt;/font&gt;&lt;/div&gt;&lt;div&gt;&lt;font face=&quot;Times New Roman&quot;&gt;&lt;span style=&quot;font-size: 11px;&quot;&gt;Output:&lt;/span&gt;&lt;/font&gt;&lt;/div&gt;&lt;/div&gt;&lt;div style=&quot;&quot;&gt;&lt;br&gt;&lt;/div&gt;&lt;div&gt;&lt;font style=&quot;color: light-dark(rgb(0, 0, 0), rgb(255, 255, 255)); font-size: 11px;&quot; face=&quot;Courier New&quot;&gt;The meat was cooked perfectly, and the flavors were&amp;nbsp;&lt;/font&gt;&lt;span style=&quot;color: light-dark(rgb(0, 0, 0), rgb(255, 255, 255)); font-size: 11px; font-family: &amp;quot;Courier New&amp;quot;; background-color: transparent;&quot;&gt;spot-on.&lt;/span&gt;&lt;/div&gt;&lt;div&gt;&lt;div&gt;&lt;br&gt;&lt;/div&gt;&lt;/div&gt;" style="text;html=1;align=left;verticalAlign=middle;resizable=0;points=[];autosize=1;strokeColor=none;fillColor=none;shadow=1;" vertex="1" parent="1">
          <mxGeometry x="107.5" y="99.99841236496607" width="430" height="270" as="geometry" />
        </mxCell>
        <mxCell id="vwBMsjArOhhtgs1t8mWz-5" value="&lt;b&gt;&lt;i&gt;&lt;font face=&quot;Times New Roman&quot;&gt;IDG Prompt&lt;/font&gt;&lt;/i&gt;&lt;/b&gt;" style="text;strokeColor=none;align=left;fillColor=none;html=1;verticalAlign=middle;whiteSpace=wrap;rounded=0;" vertex="1" parent="1">
          <mxGeometry x="110" y="111" width="99" height="32" as="geometry" />
        </mxCell>
      </root>
    </mxGraphModel>
  </diagram>
</mxfile>
